<?xml version="1.0" encoding="UTF-8" standalone="no"?>
<!DOCTYPE svg PUBLIC "-//W3C//DTD SVG 1.1//EN"
 "http://www.w3.org/Graphics/SVG/1.1/DTD/svg11.dtd">
<!-- Generated by graphviz version 2.38.0 (20140413.2041)
 -->
<!-- Title: lexer.test Pages: 1 -->
<svg width="100%" height="100%" xmlns="http://www.w3.org/2000/svg" xmlns:xlink="http://www.w3.org/1999/xlink">
<script xlink:href="https://www.cyberz.org/projects/SVGPan/SVGPan.js"/><g id="viewport" transform="scale(0.5,0.5) translate(0,0)"><g id="graph0" class="graph" transform="scale(1 1) rotate(0) translate(4 1526)">
<title>lexer.test</title>
<polygon fill="white" stroke="none" points="-4,4 -4,-1526 1441,-1526 1441,4 -4,4"/>
<g id="clust1" class="cluster"><title>cluster_L</title>
<polygon fill="none" stroke="black" points="8,-1385 8,-1514 546,-1514 546,-1385 8,-1385"/>
</g>
<!-- L -->
<g id="node1" class="node"><title>L</title>
<polygon fill="#f8f8f8" stroke="black" points="537.5,-1506 16.5,-1506 16.5,-1393 537.5,-1393 537.5,-1506"/>
<text text-anchor="start" x="24.5" y="-1476.4" font-family="Times,serif" font-size="32.00">File: lexer.test</text>
<text text-anchor="start" x="24.5" y="-1441.4" font-family="Times,serif" font-size="32.00">Type: cpu</text>
<text text-anchor="start" x="24.5" y="-1406.4" font-family="Times,serif" font-size="32.00">180ms of 180ms total ( &#160;100%)</text>
</g>
<!-- N1 -->
<g id="node2" class="node"><title>N1</title>
<g id="a_node2"><a xlink:title="runtime.mapiternext (110ms)">
<polygon fill="#f8f8f8" stroke="black" points="739.5,-533 464.5,-533 464.5,-447 739.5,-447 739.5,-533"/>
<text text-anchor="middle" x="602" y="-509.8" font-family="Times,serif" font-size="24.00">runtime.mapiternext</text>
<text text-anchor="middle" x="602" y="-483.8" font-family="Times,serif" font-size="24.00">100ms(55.56%)</text>
<text text-anchor="middle" x="602" y="-457.8" font-family="Times,serif" font-size="24.00">of 110ms(61.11%)</text>
</a>
</g>
</g>
<!-- N6 -->
<g id="node7" class="node"><title>N6</title>
<g id="a_node7"><a xlink:title="runtime.writebarrierptr (10ms)">
<polygon fill="#f8f8f8" stroke="black" points="547,-396 357,-396 357,-358 547,-358 547,-396"/>
<text text-anchor="middle" x="452" y="-380.8" font-family="Times,serif" font-size="14.00">runtime.writebarrierptr</text>
<text text-anchor="middle" x="452" y="-365.8" font-family="Times,serif" font-size="14.00">10ms(5.56%)</text>
</a>
</g>
</g>
<!-- N1&#45;&gt;N6 -->
<g id="edge22" class="edge"><title>N1&#45;&gt;N6</title>
<g id="a_edge22"><a xlink:title="runtime.mapiternext &#45;&gt; runtime.writebarrierptr (10ms)">
<path fill="none" stroke="black" d="M544.864,-446.719C524.515,-431.661 502.303,-415.224 484.706,-402.202"/>
<polygon fill="black" stroke="black" points="486.587,-399.24 476.467,-396.105 482.423,-404.867 486.587,-399.24"/>
</a>
</g>
<g id="a_edge22&#45;label"><a xlink:title="runtime.mapiternext &#45;&gt; runtime.writebarrierptr (10ms)">
<text text-anchor="middle" x="541" y="-417.8" font-family="Times,serif" font-size="14.00"> 10ms</text>
</a>
</g>
</g>
<!-- N2 -->
<g id="node3" class="node"><title>N2</title>
<g id="a_node3"><a xlink:title="github.com/llir/llvm/asm/lexer.lexLetter (160ms)">
<polygon fill="#f8f8f8" stroke="black" points="794.5,-646 409.5,-646 409.5,-584 794.5,-584 794.5,-646"/>
<text text-anchor="middle" x="602" y="-629.2" font-family="Times,serif" font-size="16.00">github.com/llir/llvm/asm/lexer.lexLetter</text>
<text text-anchor="middle" x="602" y="-611.2" font-family="Times,serif" font-size="16.00">20ms(11.11%)</text>
<text text-anchor="middle" x="602" y="-593.2" font-family="Times,serif" font-size="16.00">of 160ms(88.89%)</text>
</a>
</g>
</g>
<!-- N2&#45;&gt;N1 -->
<g id="edge10" class="edge"><title>N2&#45;&gt;N1</title>
<g id="a_edge10"><a xlink:title="github.com/llir/llvm/asm/lexer.lexLetter &#45;&gt; runtime.mapiternext (110ms)">
<path fill="none" stroke="black" stroke-width="4" d="M602,-583.911C602,-571.782 602,-557.426 602,-543.672"/>
<polygon fill="black" stroke="black" stroke-width="4" points="605.5,-543.317 602,-533.318 598.5,-543.318 605.5,-543.317"/>
</a>
</g>
<g id="a_edge10&#45;label"><a xlink:title="github.com/llir/llvm/asm/lexer.lexLetter &#45;&gt; runtime.mapiternext (110ms)">
<text text-anchor="middle" x="628.5" y="-554.8" font-family="Times,serif" font-size="14.00"> 110ms</text>
</a>
</g>
</g>
<!-- N8 -->
<g id="node9" class="node"><title>N8</title>
<g id="a_node9"><a xlink:title="github.com/llir/llvm/asm/lexer.(*lexer).accept (30ms)">
<polygon fill="#f8f8f8" stroke="black" points="989,-307 759,-307 759,-271 989,-271 989,-307"/>
<text text-anchor="middle" x="874" y="-291.6" font-family="Times,serif" font-size="8.00">github.com/llir/llvm/asm/lexer.(*lexer).accept</text>
<text text-anchor="middle" x="874" y="-282.6" font-family="Times,serif" font-size="8.00">0 of 30ms(16.67%)</text>
</a>
</g>
</g>
<!-- N2&#45;&gt;N8 -->
<g id="edge18" class="edge"><title>N2&#45;&gt;N8</title>
<g id="a_edge18"><a xlink:title="github.com/llir/llvm/asm/lexer.lexLetter &#45;&gt; github.com/llir/llvm/asm/lexer.(*lexer).accept (10ms)">
<path fill="none" stroke="black" d="M785.064,-583.925C847.163,-570.589 906.739,-553.291 930,-533 961.95,-505.129 1028.07,-394.199 1006,-358 992.848,-336.431 970.422,-321.41 947.75,-311.086"/>
<polygon fill="black" stroke="black" points="948.959,-307.796 938.388,-307.081 946.206,-314.232 948.959,-307.796"/>
</a>
</g>
<g id="a_edge18&#45;label"><a xlink:title="github.com/llir/llvm/asm/lexer.lexLetter &#45;&gt; github.com/llir/llvm/asm/lexer.(*lexer).accept (10ms)">
<text text-anchor="middle" x="1025" y="-417.8" font-family="Times,serif" font-size="14.00"> 10ms</text>
</a>
</g>
</g>
<!-- N9 -->
<g id="node10" class="node"><title>N9</title>
<g id="a_node10"><a xlink:title="github.com/llir/llvm/asm/lexer.(*lexer).acceptRun (20ms)">
<polygon fill="#f8f8f8" stroke="black" points="997,-395 751,-395 751,-359 997,-359 997,-395"/>
<text text-anchor="middle" x="874" y="-379.6" font-family="Times,serif" font-size="8.00">github.com/llir/llvm/asm/lexer.(*lexer).acceptRun</text>
<text text-anchor="middle" x="874" y="-370.6" font-family="Times,serif" font-size="8.00">0 of 20ms(11.11%)</text>
</a>
</g>
</g>
<!-- N2&#45;&gt;N9 -->
<g id="edge19" class="edge"><title>N2&#45;&gt;N9</title>
<g id="a_edge19"><a xlink:title="github.com/llir/llvm/asm/lexer.lexLetter &#45;&gt; github.com/llir/llvm/asm/lexer.(*lexer).acceptRun (10ms)">
<path fill="none" stroke="black" d="M788.648,-583.91C815.012,-572.023 839.165,-555.613 857,-533 885.893,-496.367 883.588,-438.806 878.996,-405.1"/>
<polygon fill="black" stroke="black" points="882.431,-404.409 877.462,-395.052 875.511,-405.465 882.431,-404.409"/>
</a>
</g>
<g id="a_edge19&#45;label"><a xlink:title="github.com/llir/llvm/asm/lexer.lexLetter &#45;&gt; github.com/llir/llvm/asm/lexer.(*lexer).acceptRun (10ms)">
<text text-anchor="middle" x="904" y="-486.3" font-family="Times,serif" font-size="14.00"> 10ms</text>
</a>
</g>
</g>
<!-- N16 -->
<g id="node17" class="node"><title>N16</title>
<g id="a_node17"><a xlink:title="runtime.eqstring (10ms)">
<polygon fill="#f8f8f8" stroke="black" points="848,-508 758,-508 758,-472 848,-472 848,-508"/>
<text text-anchor="middle" x="803" y="-492.6" font-family="Times,serif" font-size="8.00">runtime.eqstring</text>
<text text-anchor="middle" x="803" y="-483.6" font-family="Times,serif" font-size="8.00">0 of 10ms(5.56%)</text>
</a>
</g>
</g>
<!-- N2&#45;&gt;N16 -->
<g id="edge20" class="edge"><title>N2&#45;&gt;N16</title>
<g id="a_edge20"><a xlink:title="github.com/llir/llvm/asm/lexer.lexLetter &#45;&gt; runtime.eqstring (10ms)">
<path fill="none" stroke="black" d="M660.696,-583.96C687.809,-569.449 720.105,-551.25 748,-533 756.747,-527.278 765.901,-520.594 774.175,-514.263"/>
<polygon fill="black" stroke="black" points="776.359,-516.998 782.108,-508.099 772.064,-511.471 776.359,-516.998"/>
</a>
</g>
<g id="a_edge20&#45;label"><a xlink:title="github.com/llir/llvm/asm/lexer.lexLetter &#45;&gt; runtime.eqstring (10ms)">
<text text-anchor="middle" x="739" y="-554.8" font-family="Times,serif" font-size="14.00"> 10ms</text>
</a>
</g>
</g>
<!-- N3 -->
<g id="node4" class="node"><title>N3</title>
<g id="a_node4"><a xlink:title="strings.IndexRune (20ms)">
<polygon fill="#f8f8f8" stroke="black" points="955.5,-220 792.5,-220 792.5,-176 955.5,-176 955.5,-220"/>
<text text-anchor="middle" x="874" y="-203.2" font-family="Times,serif" font-size="16.00">strings.IndexRune</text>
<text text-anchor="middle" x="874" y="-185.2" font-family="Times,serif" font-size="16.00">20ms(11.11%)</text>
</a>
</g>
</g>
<!-- N4 -->
<g id="node5" class="node"><title>N4</title>
<g id="a_node5"><a xlink:title="github.com/llir/llvm/asm/lexer.(*lexer).ignoreRun (20ms)">
<polygon fill="#f8f8f8" stroke="black" points="1437,-516.5 1023,-516.5 1023,-463.5 1437,-463.5 1437,-516.5"/>
<text text-anchor="middle" x="1230" y="-501.3" font-family="Times,serif" font-size="14.00">github.com/llir/llvm/asm/lexer.(*lexer).ignoreRun</text>
<text text-anchor="middle" x="1230" y="-486.3" font-family="Times,serif" font-size="14.00">10ms(5.56%)</text>
<text text-anchor="middle" x="1230" y="-471.3" font-family="Times,serif" font-size="14.00">of 20ms(11.11%)</text>
</a>
</g>
</g>
<!-- N4&#45;&gt;N9 -->
<g id="edge16" class="edge"><title>N4&#45;&gt;N9</title>
<g id="a_edge16"><a xlink:title="github.com/llir/llvm/asm/lexer.(*lexer).ignoreRun &#45;&gt; github.com/llir/llvm/asm/lexer.(*lexer).acceptRun (10ms)">
<path fill="none" stroke="black" d="M1181.13,-463.392C1148.45,-447.193 1104.08,-426.939 1063,-414 1041.91,-407.356 1019.09,-401.741 996.838,-397.067"/>
<polygon fill="black" stroke="black" points="997.505,-393.631 987.006,-395.053 996.101,-400.488 997.505,-393.631"/>
</a>
</g>
<g id="a_edge16&#45;label"><a xlink:title="github.com/llir/llvm/asm/lexer.(*lexer).ignoreRun &#45;&gt; github.com/llir/llvm/asm/lexer.(*lexer).acceptRun (10ms)">
<text text-anchor="middle" x="1123" y="-417.8" font-family="Times,serif" font-size="14.00"> 10ms</text>
</a>
</g>
</g>
<!-- N5 -->
<g id="node6" class="node"><title>N5</title>
<g id="a_node6"><a xlink:title="runtime.memeqbody (10ms)">
<polygon fill="#f8f8f8" stroke="black" points="732.5,-396 565.5,-396 565.5,-358 732.5,-358 732.5,-396"/>
<text text-anchor="middle" x="649" y="-380.8" font-family="Times,serif" font-size="14.00">runtime.memeqbody</text>
<text text-anchor="middle" x="649" y="-365.8" font-family="Times,serif" font-size="14.00">10ms(5.56%)</text>
</a>
</g>
</g>
<!-- N7 -->
<g id="node8" class="node"><title>N7</title>
<g id="a_node8"><a xlink:title="unicode/utf8.decodeRuneInStringInternal (10ms)">
<polygon fill="#f8f8f8" stroke="black" points="1243,-38 923,-38 923,-0 1243,-0 1243,-38"/>
<text text-anchor="middle" x="1083" y="-22.8" font-family="Times,serif" font-size="14.00">unicode/utf8.decodeRuneInStringInternal</text>
<text text-anchor="middle" x="1083" y="-7.8" font-family="Times,serif" font-size="14.00">10ms(5.56%)</text>
</a>
</g>
</g>
<!-- N8&#45;&gt;N3 -->
<g id="edge11" class="edge"><title>N8&#45;&gt;N3</title>
<g id="a_edge11"><a xlink:title="github.com/llir/llvm/asm/lexer.(*lexer).accept &#45;&gt; strings.IndexRune (20ms)">
<path fill="none" stroke="black" d="M874,-270.84C874,-259.441 874,-244.134 874,-230.578"/>
<polygon fill="black" stroke="black" points="877.5,-230.19 874,-220.191 870.5,-230.191 877.5,-230.19"/>
</a>
</g>
<g id="a_edge11&#45;label"><a xlink:title="github.com/llir/llvm/asm/lexer.(*lexer).accept &#45;&gt; strings.IndexRune (20ms)">
<text text-anchor="middle" x="896" y="-241.8" font-family="Times,serif" font-size="14.00"> 20ms</text>
</a>
</g>
</g>
<!-- N11 -->
<g id="node12" class="node"><title>N11</title>
<g id="a_node12"><a xlink:title="github.com/llir/llvm/asm/lexer.(*lexer).next (10ms)">
<polygon fill="#f8f8f8" stroke="black" points="1192,-216 974,-216 974,-180 1192,-180 1192,-216"/>
<text text-anchor="middle" x="1083" y="-200.6" font-family="Times,serif" font-size="8.00">github.com/llir/llvm/asm/lexer.(*lexer).next</text>
<text text-anchor="middle" x="1083" y="-191.6" font-family="Times,serif" font-size="8.00">0 of 10ms(5.56%)</text>
</a>
</g>
</g>
<!-- N8&#45;&gt;N11 -->
<g id="edge15" class="edge"><title>N8&#45;&gt;N11</title>
<g id="a_edge15"><a xlink:title="github.com/llir/llvm/asm/lexer.(*lexer).accept &#45;&gt; github.com/llir/llvm/asm/lexer.(*lexer).next (10ms)">
<path fill="none" stroke="black" d="M914.297,-270.84C948.271,-256.373 997.025,-235.611 1033.39,-220.125"/>
<polygon fill="black" stroke="black" points="1035,-223.246 1042.83,-216.107 1032.25,-216.805 1035,-223.246"/>
</a>
</g>
<g id="a_edge15&#45;label"><a xlink:title="github.com/llir/llvm/asm/lexer.(*lexer).accept &#45;&gt; github.com/llir/llvm/asm/lexer.(*lexer).next (10ms)">
<text text-anchor="middle" x="1014" y="-241.8" font-family="Times,serif" font-size="14.00"> 10ms</text>
</a>
</g>
</g>
<!-- N9&#45;&gt;N8 -->
<g id="edge12" class="edge"><title>N9&#45;&gt;N8</title>
<g id="a_edge12"><a xlink:title="github.com/llir/llvm/asm/lexer.(*lexer).acceptRun &#45;&gt; github.com/llir/llvm/asm/lexer.(*lexer).accept (20ms)">
<path fill="none" stroke="black" d="M874,-358.597C874,-346.746 874,-330.817 874,-317.292"/>
<polygon fill="black" stroke="black" points="877.5,-317.084 874,-307.084 870.5,-317.084 877.5,-317.084"/>
</a>
</g>
<g id="a_edge12&#45;label"><a xlink:title="github.com/llir/llvm/asm/lexer.(*lexer).acceptRun &#45;&gt; github.com/llir/llvm/asm/lexer.(*lexer).accept (20ms)">
<text text-anchor="middle" x="896" y="-328.8" font-family="Times,serif" font-size="14.00"> 20ms</text>
</a>
</g>
</g>
<!-- N10 -->
<g id="node11" class="node"><title>N10</title>
<g id="a_node11"><a xlink:title="github.com/llir/llvm/asm/lexer.(*lexer).lex (180ms)">
<polygon fill="#f8f8f8" stroke="black" points="708,-733 496,-733 496,-697 708,-697 708,-733"/>
<text text-anchor="middle" x="602" y="-717.6" font-family="Times,serif" font-size="8.00">github.com/llir/llvm/asm/lexer.(*lexer).lex</text>
<text text-anchor="middle" x="602" y="-708.6" font-family="Times,serif" font-size="8.00">0 of 180ms(100%)</text>
</a>
</g>
</g>
<!-- N10&#45;&gt;N2 -->
<g id="edge9" class="edge"><title>N10&#45;&gt;N2</title>
<g id="a_edge9"><a xlink:title="github.com/llir/llvm/asm/lexer.(*lexer).lex &#45;&gt; github.com/llir/llvm/asm/lexer.lexLetter (160ms)">
<path fill="none" stroke="black" stroke-width="5" d="M602,-696.93C602,-685.721 602,-670.564 602,-656.398"/>
<polygon fill="black" stroke="black" stroke-width="5" points="606.375,-656.328 602,-646.328 597.625,-656.328 606.375,-656.328"/>
</a>
</g>
<g id="a_edge9&#45;label"><a xlink:title="github.com/llir/llvm/asm/lexer.(*lexer).lex &#45;&gt; github.com/llir/llvm/asm/lexer.lexLetter (160ms)">
<text text-anchor="middle" x="628.5" y="-667.8" font-family="Times,serif" font-size="14.00"> 160ms</text>
</a>
</g>
</g>
<!-- N13 -->
<g id="node14" class="node"><title>N13</title>
<g id="a_node14"><a xlink:title="github.com/llir/llvm/asm/lexer.lexToken (20ms)">
<polygon fill="#f8f8f8" stroke="black" points="1144.5,-633 939.5,-633 939.5,-597 1144.5,-597 1144.5,-633"/>
<text text-anchor="middle" x="1042" y="-617.6" font-family="Times,serif" font-size="8.00">github.com/llir/llvm/asm/lexer.lexToken</text>
<text text-anchor="middle" x="1042" y="-608.6" font-family="Times,serif" font-size="8.00">0 of 20ms(11.11%)</text>
</a>
</g>
</g>
<!-- N10&#45;&gt;N13 -->
<g id="edge13" class="edge"><title>N10&#45;&gt;N13</title>
<g id="a_edge13"><a xlink:title="github.com/llir/llvm/asm/lexer.(*lexer).lex &#45;&gt; github.com/llir/llvm/asm/lexer.lexToken (20ms)">
<path fill="none" stroke="black" d="M678.391,-696.986C755.562,-679.798 874.602,-653.284 955.274,-635.316"/>
<polygon fill="black" stroke="black" points="956.409,-638.649 965.408,-633.059 954.887,-631.817 956.409,-638.649"/>
</a>
</g>
<g id="a_edge13&#45;label"><a xlink:title="github.com/llir/llvm/asm/lexer.(*lexer).lex &#45;&gt; github.com/llir/llvm/asm/lexer.lexToken (20ms)">
<text text-anchor="middle" x="844" y="-667.8" font-family="Times,serif" font-size="14.00"> 20ms</text>
</a>
</g>
</g>
<!-- N22 -->
<g id="node23" class="node"><title>N22</title>
<g id="a_node23"><a xlink:title="unicode/utf8.DecodeRuneInString (10ms)">
<polygon fill="#f8f8f8" stroke="black" points="1164.5,-125 1001.5,-125 1001.5,-89 1164.5,-89 1164.5,-125"/>
<text text-anchor="middle" x="1083" y="-109.6" font-family="Times,serif" font-size="8.00">unicode/utf8.DecodeRuneInString</text>
<text text-anchor="middle" x="1083" y="-100.6" font-family="Times,serif" font-size="8.00">0 of 10ms(5.56%)</text>
</a>
</g>
</g>
<!-- N11&#45;&gt;N22 -->
<g id="edge17" class="edge"><title>N11&#45;&gt;N22</title>
<g id="a_edge17"><a xlink:title="github.com/llir/llvm/asm/lexer.(*lexer).next &#45;&gt; unicode/utf8.DecodeRuneInString (10ms)">
<path fill="none" stroke="black" d="M1083,-179.84C1083,-167.281 1083,-149.979 1083,-135.502"/>
<polygon fill="black" stroke="black" points="1086.5,-135.107 1083,-125.107 1079.5,-135.107 1086.5,-135.107"/>
</a>
</g>
<g id="a_edge17&#45;label"><a xlink:title="github.com/llir/llvm/asm/lexer.(*lexer).next &#45;&gt; unicode/utf8.DecodeRuneInString (10ms)">
<text text-anchor="middle" x="1105" y="-146.8" font-family="Times,serif" font-size="14.00"> 10ms</text>
</a>
</g>
</g>
<!-- N12 -->
<g id="node13" class="node"><title>N12</title>
<g id="a_node13"><a xlink:title="github.com/llir/llvm/asm/lexer.Parse (180ms)">
<polygon fill="#f8f8f8" stroke="black" points="697.5,-820 506.5,-820 506.5,-784 697.5,-784 697.5,-820"/>
<text text-anchor="middle" x="602" y="-804.6" font-family="Times,serif" font-size="8.00">github.com/llir/llvm/asm/lexer.Parse</text>
<text text-anchor="middle" x="602" y="-795.6" font-family="Times,serif" font-size="8.00">0 of 180ms(100%)</text>
</a>
</g>
</g>
<!-- N12&#45;&gt;N10 -->
<g id="edge1" class="edge"><title>N12&#45;&gt;N10</title>
<g id="a_edge1"><a xlink:title="github.com/llir/llvm/asm/lexer.Parse &#45;&gt; github.com/llir/llvm/asm/lexer.(*lexer).lex (180ms)">
<path fill="none" stroke="black" stroke-width="6" d="M602,-783.799C602,-772.163 602,-756.548 602,-743.237"/>
<polygon fill="black" stroke="black" stroke-width="6" points="607.25,-743.175 602,-733.175 596.75,-743.175 607.25,-743.175"/>
</a>
</g>
<g id="a_edge1&#45;label"><a xlink:title="github.com/llir/llvm/asm/lexer.Parse &#45;&gt; github.com/llir/llvm/asm/lexer.(*lexer).lex (180ms)">
<text text-anchor="middle" x="628.5" y="-754.8" font-family="Times,serif" font-size="14.00"> 180ms</text>
</a>
</g>
</g>
<!-- N13&#45;&gt;N4 -->
<g id="edge14" class="edge"><title>N13&#45;&gt;N4</title>
<g id="a_edge14"><a xlink:title="github.com/llir/llvm/asm/lexer.lexToken &#45;&gt; github.com/llir/llvm/asm/lexer.(*lexer).ignoreRun (20ms)">
<path fill="none" stroke="black" d="M1068.14,-596.897C1097.66,-577.586 1146.29,-545.77 1182.55,-522.044"/>
<polygon fill="black" stroke="black" points="1184.57,-524.908 1191.02,-516.504 1180.73,-519.05 1184.57,-524.908"/>
</a>
</g>
<g id="a_edge14&#45;label"><a xlink:title="github.com/llir/llvm/asm/lexer.lexToken &#45;&gt; github.com/llir/llvm/asm/lexer.(*lexer).ignoreRun (20ms)">
<text text-anchor="middle" x="1158" y="-554.8" font-family="Times,serif" font-size="14.00"> 20ms</text>
</a>
</g>
</g>
<!-- N14 -->
<g id="node15" class="node"><title>N14</title>
<g id="a_node15"><a xlink:title="github.com/llir/llvm/asm/lexer_test.ExampleParse (180ms)">
<polygon fill="#f8f8f8" stroke="black" points="727,-907 477,-907 477,-871 727,-871 727,-907"/>
<text text-anchor="middle" x="602" y="-891.6" font-family="Times,serif" font-size="8.00">github.com/llir/llvm/asm/lexer_test.ExampleParse</text>
<text text-anchor="middle" x="602" y="-882.6" font-family="Times,serif" font-size="8.00">0 of 180ms(100%)</text>
</a>
</g>
</g>
<!-- N14&#45;&gt;N12 -->
<g id="edge2" class="edge"><title>N14&#45;&gt;N12</title>
<g id="a_edge2"><a xlink:title="github.com/llir/llvm/asm/lexer_test.ExampleParse &#45;&gt; github.com/llir/llvm/asm/lexer.Parse (180ms)">
<path fill="none" stroke="black" stroke-width="6" d="M602,-870.799C602,-859.163 602,-843.548 602,-830.237"/>
<polygon fill="black" stroke="black" stroke-width="6" points="607.25,-830.175 602,-820.175 596.75,-830.175 607.25,-830.175"/>
</a>
</g>
<g id="a_edge2&#45;label"><a xlink:title="github.com/llir/llvm/asm/lexer_test.ExampleParse &#45;&gt; github.com/llir/llvm/asm/lexer.Parse (180ms)">
<text text-anchor="middle" x="628.5" y="-841.8" font-family="Times,serif" font-size="14.00"> 180ms</text>
</a>
</g>
</g>
<!-- N15 -->
<g id="node16" class="node"><title>N15</title>
<g id="a_node16"><a xlink:title="main.main (180ms)">
<polygon fill="#f8f8f8" stroke="black" points="648.5,-1255 555.5,-1255 555.5,-1219 648.5,-1219 648.5,-1255"/>
<text text-anchor="middle" x="602" y="-1239.6" font-family="Times,serif" font-size="8.00">main.main</text>
<text text-anchor="middle" x="602" y="-1230.6" font-family="Times,serif" font-size="8.00">0 of 180ms(100%)</text>
</a>
</g>
</g>
<!-- N19 -->
<g id="node20" class="node"><title>N19</title>
<g id="a_node20"><a xlink:title="testing.(*M).Run (180ms)">
<polygon fill="#f8f8f8" stroke="black" points="648.5,-1168 555.5,-1168 555.5,-1132 648.5,-1132 648.5,-1168"/>
<text text-anchor="middle" x="602" y="-1152.6" font-family="Times,serif" font-size="8.00">testing.(*M).Run</text>
<text text-anchor="middle" x="602" y="-1143.6" font-family="Times,serif" font-size="8.00">0 of 180ms(100%)</text>
</a>
</g>
</g>
<!-- N15&#45;&gt;N19 -->
<g id="edge3" class="edge"><title>N15&#45;&gt;N19</title>
<g id="a_edge3"><a xlink:title="main.main &#45;&gt; testing.(*M).Run (180ms)">
<path fill="none" stroke="black" stroke-width="6" d="M602,-1218.8C602,-1207.16 602,-1191.55 602,-1178.24"/>
<polygon fill="black" stroke="black" stroke-width="6" points="607.25,-1178.18 602,-1168.18 596.75,-1178.18 607.25,-1178.18"/>
</a>
</g>
<g id="a_edge3&#45;label"><a xlink:title="main.main &#45;&gt; testing.(*M).Run (180ms)">
<text text-anchor="middle" x="628.5" y="-1189.8" font-family="Times,serif" font-size="14.00"> 180ms</text>
</a>
</g>
</g>
<!-- N16&#45;&gt;N5 -->
<g id="edge21" class="edge"><title>N16&#45;&gt;N5</title>
<g id="a_edge21"><a xlink:title="runtime.eqstring &#45;&gt; runtime.memeqbody (10ms)">
<path fill="none" stroke="black" d="M780.954,-471.817C770.968,-464.124 758.967,-455.003 748,-447 727.014,-431.685 703.129,-415.017 684.079,-401.9"/>
<polygon fill="black" stroke="black" points="685.918,-398.917 675.693,-396.14 681.955,-404.687 685.918,-398.917"/>
</a>
</g>
<g id="a_edge21&#45;label"><a xlink:title="runtime.eqstring &#45;&gt; runtime.memeqbody (10ms)">
<text text-anchor="middle" x="744" y="-417.8" font-family="Times,serif" font-size="14.00"> 10ms</text>
</a>
</g>
</g>
<!-- N17 -->
<g id="node18" class="node"><title>N17</title>
<g id="a_node18"><a xlink:title="runtime.goexit (180ms)">
<polygon fill="#f8f8f8" stroke="black" points="648.5,-1467.5 555.5,-1467.5 555.5,-1431.5 648.5,-1431.5 648.5,-1467.5"/>
<text text-anchor="middle" x="602" y="-1452.1" font-family="Times,serif" font-size="8.00">runtime.goexit</text>
<text text-anchor="middle" x="602" y="-1443.1" font-family="Times,serif" font-size="8.00">0 of 180ms(100%)</text>
</a>
</g>
</g>
<!-- N18 -->
<g id="node19" class="node"><title>N18</title>
<g id="a_node19"><a xlink:title="runtime.main (180ms)">
<polygon fill="#f8f8f8" stroke="black" points="648.5,-1342 555.5,-1342 555.5,-1306 648.5,-1306 648.5,-1342"/>
<text text-anchor="middle" x="602" y="-1326.6" font-family="Times,serif" font-size="8.00">runtime.main</text>
<text text-anchor="middle" x="602" y="-1317.6" font-family="Times,serif" font-size="8.00">0 of 180ms(100%)</text>
</a>
</g>
</g>
<!-- N17&#45;&gt;N18 -->
<g id="edge4" class="edge"><title>N17&#45;&gt;N18</title>
<g id="a_edge4"><a xlink:title="runtime.goexit &#45;&gt; runtime.main (180ms)">
<path fill="none" stroke="black" stroke-width="6" d="M602,-1431.33C602,-1410.87 602,-1376.42 602,-1352.3"/>
<polygon fill="black" stroke="black" stroke-width="6" points="607.25,-1352.03 602,-1342.03 596.75,-1352.03 607.25,-1352.03"/>
</a>
</g>
<g id="a_edge4&#45;label"><a xlink:title="runtime.goexit &#45;&gt; runtime.main (180ms)">
<text text-anchor="middle" x="628.5" y="-1363.8" font-family="Times,serif" font-size="14.00"> 180ms</text>
</a>
</g>
</g>
<!-- N18&#45;&gt;N15 -->
<g id="edge5" class="edge"><title>N18&#45;&gt;N15</title>
<g id="a_edge5"><a xlink:title="runtime.main &#45;&gt; main.main (180ms)">
<path fill="none" stroke="black" stroke-width="6" d="M602,-1305.8C602,-1294.16 602,-1278.55 602,-1265.24"/>
<polygon fill="black" stroke="black" stroke-width="6" points="607.25,-1265.18 602,-1255.18 596.75,-1265.18 607.25,-1265.18"/>
</a>
</g>
<g id="a_edge5&#45;label"><a xlink:title="runtime.main &#45;&gt; main.main (180ms)">
<text text-anchor="middle" x="628.5" y="-1276.8" font-family="Times,serif" font-size="14.00"> 180ms</text>
</a>
</g>
</g>
<!-- N20 -->
<g id="node21" class="node"><title>N20</title>
<g id="a_node21"><a xlink:title="testing.RunExamples (180ms)">
<polygon fill="#f8f8f8" stroke="black" points="655,-1081 549,-1081 549,-1045 655,-1045 655,-1081"/>
<text text-anchor="middle" x="602" y="-1065.6" font-family="Times,serif" font-size="8.00">testing.RunExamples</text>
<text text-anchor="middle" x="602" y="-1056.6" font-family="Times,serif" font-size="8.00">0 of 180ms(100%)</text>
</a>
</g>
</g>
<!-- N19&#45;&gt;N20 -->
<g id="edge6" class="edge"><title>N19&#45;&gt;N20</title>
<g id="a_edge6"><a xlink:title="testing.(*M).Run &#45;&gt; testing.RunExamples (180ms)">
<path fill="none" stroke="black" stroke-width="6" d="M602,-1131.8C602,-1120.16 602,-1104.55 602,-1091.24"/>
<polygon fill="black" stroke="black" stroke-width="6" points="607.25,-1091.18 602,-1081.18 596.75,-1091.18 607.25,-1091.18"/>
</a>
</g>
<g id="a_edge6&#45;label"><a xlink:title="testing.(*M).Run &#45;&gt; testing.RunExamples (180ms)">
<text text-anchor="middle" x="628.5" y="-1102.8" font-family="Times,serif" font-size="14.00"> 180ms</text>
</a>
</g>
</g>
<!-- N21 -->
<g id="node22" class="node"><title>N21</title>
<g id="a_node22"><a xlink:title="testing.runExample (180ms)">
<polygon fill="#f8f8f8" stroke="black" points="651.5,-994 552.5,-994 552.5,-958 651.5,-958 651.5,-994"/>
<text text-anchor="middle" x="602" y="-978.6" font-family="Times,serif" font-size="8.00">testing.runExample</text>
<text text-anchor="middle" x="602" y="-969.6" font-family="Times,serif" font-size="8.00">0 of 180ms(100%)</text>
</a>
</g>
</g>
<!-- N20&#45;&gt;N21 -->
<g id="edge7" class="edge"><title>N20&#45;&gt;N21</title>
<g id="a_edge7"><a xlink:title="testing.RunExamples &#45;&gt; testing.runExample (180ms)">
<path fill="none" stroke="black" stroke-width="6" d="M602,-1044.8C602,-1033.16 602,-1017.55 602,-1004.24"/>
<polygon fill="black" stroke="black" stroke-width="6" points="607.25,-1004.18 602,-994.175 596.75,-1004.18 607.25,-1004.18"/>
</a>
</g>
<g id="a_edge7&#45;label"><a xlink:title="testing.RunExamples &#45;&gt; testing.runExample (180ms)">
<text text-anchor="middle" x="628.5" y="-1015.8" font-family="Times,serif" font-size="14.00"> 180ms</text>
</a>
</g>
</g>
<!-- N21&#45;&gt;N14 -->
<g id="edge8" class="edge"><title>N21&#45;&gt;N14</title>
<g id="a_edge8"><a xlink:title="testing.runExample &#45;&gt; github.com/llir/llvm/asm/lexer_test.ExampleParse (180ms)">
<path fill="none" stroke="black" stroke-width="6" d="M602,-957.799C602,-946.163 602,-930.548 602,-917.237"/>
<polygon fill="black" stroke="black" stroke-width="6" points="607.25,-917.175 602,-907.175 596.75,-917.175 607.25,-917.175"/>
</a>
</g>
<g id="a_edge8&#45;label"><a xlink:title="testing.runExample &#45;&gt; github.com/llir/llvm/asm/lexer_test.ExampleParse (180ms)">
<text text-anchor="middle" x="628.5" y="-928.8" font-family="Times,serif" font-size="14.00"> 180ms</text>
</a>
</g>
</g>
<!-- N22&#45;&gt;N7 -->
<g id="edge23" class="edge"><title>N22&#45;&gt;N7</title>
<g id="a_edge23"><a xlink:title="unicode/utf8.DecodeRuneInString &#45;&gt; unicode/utf8.decodeRuneInStringInternal (10ms)">
<path fill="none" stroke="black" d="M1083,-88.5966C1083,-77.0557 1083,-61.647 1083,-48.3573"/>
<polygon fill="black" stroke="black" points="1086.5,-48.2679 1083,-38.268 1079.5,-48.268 1086.5,-48.2679"/>
</a>
</g>
<g id="a_edge23&#45;label"><a xlink:title="unicode/utf8.DecodeRuneInString &#45;&gt; unicode/utf8.decodeRuneInStringInternal (10ms)">
<text text-anchor="middle" x="1105" y="-59.8" font-family="Times,serif" font-size="14.00"> 10ms</text>
</a>
</g>
</g>
</g>
</g></svg>
