<?xml version="1.0" encoding="UTF-8" standalone="no"?>
<!DOCTYPE svg PUBLIC "-//W3C//DTD SVG 1.1//EN"
 "http://www.w3.org/Graphics/SVG/1.1/DTD/svg11.dtd">
<!-- Generated by graphviz version 2.38.0 (20140413.2041)
 -->
<!-- Title: lexer.test Pages: 1 -->
<svg width="100%" height="100%" xmlns="http://www.w3.org/2000/svg" xmlns:xlink="http://www.w3.org/1999/xlink">
<script xlink:href="https://www.cyberz.org/projects/SVGPan/SVGPan.js"/><g id="viewport" transform="scale(0.5,0.5) translate(0,0)"><g id="graph0" class="graph" transform="scale(1 1) rotate(0) translate(4 1532)">
<title>lexer.test</title>
<polygon fill="white" stroke="none" points="-4,4 -4,-1532 1049.5,-1532 1049.5,4 -4,4"/>
<g id="clust1" class="cluster"><title>cluster_L</title>
<polygon fill="none" stroke="black" points="8,-1391 8,-1520 546,-1520 546,-1391 8,-1391"/>
</g>
<!-- L -->
<g id="node1" class="node"><title>L</title>
<polygon fill="#f8f8f8" stroke="black" points="537.5,-1512 16.5,-1512 16.5,-1399 537.5,-1399 537.5,-1512"/>
<text text-anchor="start" x="24.5" y="-1482.4" font-family="Times,serif" font-size="32.00">File: lexer.test</text>
<text text-anchor="start" x="24.5" y="-1447.4" font-family="Times,serif" font-size="32.00">Type: cpu</text>
<text text-anchor="start" x="24.5" y="-1412.4" font-family="Times,serif" font-size="32.00">160ms of 160ms total ( &#160;100%)</text>
</g>
<!-- N1 -->
<g id="node2" class="node"><title>N1</title>
<g id="a_node2"><a xlink:title="runtime.mapiternext (110ms)">
<polygon fill="#f8f8f8" stroke="black" points="739.5,-461 464.5,-461 464.5,-375 739.5,-375 739.5,-461"/>
<text text-anchor="middle" x="602" y="-437.8" font-family="Times,serif" font-size="24.00">runtime.mapiternext</text>
<text text-anchor="middle" x="602" y="-411.8" font-family="Times,serif" font-size="24.00">90ms(56.25%)</text>
<text text-anchor="middle" x="602" y="-385.8" font-family="Times,serif" font-size="24.00">of 110ms(68.75%)</text>
</a>
</g>
</g>
<!-- N2 -->
<g id="node3" class="node"><title>N2</title>
<g id="a_node3"><a xlink:title="runtime.writebarrierptr (20ms)">
<polygon fill="#f8f8f8" stroke="black" points="706.5,-324 497.5,-324 497.5,-280 706.5,-280 706.5,-324"/>
<text text-anchor="middle" x="602" y="-307.2" font-family="Times,serif" font-size="16.00">runtime.writebarrierptr</text>
<text text-anchor="middle" x="602" y="-289.2" font-family="Times,serif" font-size="16.00">20ms(12.50%)</text>
</a>
</g>
</g>
<!-- N1&#45;&gt;N2 -->
<g id="edge13" class="edge"><title>N1&#45;&gt;N2</title>
<g id="a_edge13"><a xlink:title="runtime.mapiternext &#45;&gt; runtime.writebarrierptr (20ms)">
<path fill="none" stroke="black" d="M602,-374.874C602,-361.531 602,-347.019 602,-334.55"/>
<polygon fill="black" stroke="black" points="605.5,-334.2 602,-324.2 598.5,-334.2 605.5,-334.2"/>
</a>
</g>
<g id="a_edge13&#45;label"><a xlink:title="runtime.mapiternext &#45;&gt; runtime.writebarrierptr (20ms)">
<text text-anchor="middle" x="624" y="-345.8" font-family="Times,serif" font-size="14.00"> 20ms</text>
</a>
</g>
</g>
<!-- N3 -->
<g id="node4" class="node"><title>N3</title>
<g id="a_node4"><a xlink:title="github.com/llir/llvm/asm/lexer.(*lexer).next (20ms)">
<polygon fill="#f8f8f8" stroke="black" points="649.5,-229 322.5,-229 322.5,-176 649.5,-176 649.5,-229"/>
<text text-anchor="middle" x="486" y="-213.8" font-family="Times,serif" font-size="14.00">github.com/llir/llvm/asm/lexer.(*lexer).next</text>
<text text-anchor="middle" x="486" y="-198.8" font-family="Times,serif" font-size="14.00">10ms(6.25%)</text>
<text text-anchor="middle" x="486" y="-183.8" font-family="Times,serif" font-size="14.00">of 20ms(12.50%)</text>
</a>
</g>
</g>
<!-- N21 -->
<g id="node22" class="node"><title>N21</title>
<g id="a_node22"><a xlink:title="unicode/utf8.DecodeRuneInString (10ms)">
<polygon fill="#f8f8f8" stroke="black" points="567.5,-125 404.5,-125 404.5,-89 567.5,-89 567.5,-125"/>
<text text-anchor="middle" x="486" y="-109.6" font-family="Times,serif" font-size="8.00">unicode/utf8.DecodeRuneInString</text>
<text text-anchor="middle" x="486" y="-100.6" font-family="Times,serif" font-size="8.00">0 of 10ms(6.25%)</text>
</a>
</g>
</g>
<!-- N3&#45;&gt;N21 -->
<g id="edge18" class="edge"><title>N3&#45;&gt;N21</title>
<g id="a_edge18"><a xlink:title="github.com/llir/llvm/asm/lexer.(*lexer).next &#45;&gt; unicode/utf8.DecodeRuneInString (10ms)">
<path fill="none" stroke="black" d="M486,-175.951C486,-163.363 486,-148.173 486,-135.35"/>
<polygon fill="black" stroke="black" points="489.5,-135.245 486,-125.245 482.5,-135.245 489.5,-135.245"/>
</a>
</g>
<g id="a_edge18&#45;label"><a xlink:title="github.com/llir/llvm/asm/lexer.(*lexer).next &#45;&gt; unicode/utf8.DecodeRuneInString (10ms)">
<text text-anchor="middle" x="508" y="-146.8" font-family="Times,serif" font-size="14.00"> 10ms</text>
</a>
</g>
</g>
<!-- N4 -->
<g id="node5" class="node"><title>N4</title>
<g id="a_node5"><a xlink:title="github.com/llir/llvm/asm/lexer.lexLetter (130ms)">
<polygon fill="#f8f8f8" stroke="black" points="754,-565 450,-565 450,-512 754,-512 754,-565"/>
<text text-anchor="middle" x="602" y="-549.8" font-family="Times,serif" font-size="14.00">github.com/llir/llvm/asm/lexer.lexLetter</text>
<text text-anchor="middle" x="602" y="-534.8" font-family="Times,serif" font-size="14.00">10ms(6.25%)</text>
<text text-anchor="middle" x="602" y="-519.8" font-family="Times,serif" font-size="14.00">of 130ms(81.25%)</text>
</a>
</g>
</g>
<!-- N4&#45;&gt;N1 -->
<g id="edge11" class="edge"><title>N4&#45;&gt;N1</title>
<g id="a_edge11"><a xlink:title="github.com/llir/llvm/asm/lexer.lexLetter &#45;&gt; runtime.mapiternext (110ms)">
<path fill="none" stroke="black" stroke-width="4" d="M602,-511.787C602,-499.956 602,-485.464 602,-471.482"/>
<polygon fill="black" stroke="black" stroke-width="4" points="605.5,-471.436 602,-461.436 598.5,-471.436 605.5,-471.436"/>
</a>
</g>
<g id="a_edge11&#45;label"><a xlink:title="github.com/llir/llvm/asm/lexer.lexLetter &#45;&gt; runtime.mapiternext (110ms)">
<text text-anchor="middle" x="628.5" y="-482.8" font-family="Times,serif" font-size="14.00"> 110ms</text>
</a>
</g>
</g>
<!-- N9 -->
<g id="node10" class="node"><title>N9</title>
<g id="a_node10"><a xlink:title="github.com/llir/llvm/asm/lexer.(*lexer).acceptRun (10ms)">
<polygon fill="#f8f8f8" stroke="black" points="978,-436 758,-436 758,-400 978,-400 978,-436"/>
<text text-anchor="middle" x="868" y="-420.6" font-family="Times,serif" font-size="8.00">github.com/llir/llvm/asm/lexer.(*lexer).acceptRun</text>
<text text-anchor="middle" x="868" y="-411.6" font-family="Times,serif" font-size="8.00">0 of 10ms(6.25%)</text>
</a>
</g>
</g>
<!-- N4&#45;&gt;N9 -->
<g id="edge20" class="edge"><title>N4&#45;&gt;N9</title>
<g id="a_edge20"><a xlink:title="github.com/llir/llvm/asm/lexer.lexLetter &#45;&gt; github.com/llir/llvm/asm/lexer.(*lexer).acceptRun (10ms)">
<path fill="none" stroke="black" d="M659.391,-511.933C707.442,-490.527 775.21,-460.337 820.319,-440.241"/>
<polygon fill="black" stroke="black" points="821.876,-443.38 829.586,-436.113 819.027,-436.985 821.876,-443.38"/>
</a>
</g>
<g id="a_edge20&#45;label"><a xlink:title="github.com/llir/llvm/asm/lexer.lexLetter &#45;&gt; github.com/llir/llvm/asm/lexer.(*lexer).acceptRun (10ms)">
<text text-anchor="middle" x="750" y="-482.8" font-family="Times,serif" font-size="14.00"> 10ms</text>
</a>
</g>
</g>
<!-- N5 -->
<g id="node6" class="node"><title>N5</title>
<g id="a_node6"><a xlink:title="github.com/llir/llvm/asm/lexer.lexToken (20ms)">
<polygon fill="#f8f8f8" stroke="black" points="432,-565 130,-565 130,-512 432,-512 432,-565"/>
<text text-anchor="middle" x="281" y="-549.8" font-family="Times,serif" font-size="14.00">github.com/llir/llvm/asm/lexer.lexToken</text>
<text text-anchor="middle" x="281" y="-534.8" font-family="Times,serif" font-size="14.00">10ms(6.25%)</text>
<text text-anchor="middle" x="281" y="-519.8" font-family="Times,serif" font-size="14.00">of 20ms(12.50%)</text>
</a>
</g>
</g>
<!-- N5&#45;&gt;N3 -->
<g id="edge21" class="edge"><title>N5&#45;&gt;N3</title>
<g id="a_edge21"><a xlink:title="github.com/llir/llvm/asm/lexer.lexToken &#45;&gt; github.com/llir/llvm/asm/lexer.(*lexer).next (10ms)">
<path fill="none" stroke="black" d="M296.746,-511.846C333.265,-452.347 423.752,-304.918 464.958,-237.783"/>
<polygon fill="black" stroke="black" points="467.953,-239.595 470.201,-229.241 461.987,-235.933 467.953,-239.595"/>
</a>
</g>
<g id="a_edge21&#45;label"><a xlink:title="github.com/llir/llvm/asm/lexer.lexToken &#45;&gt; github.com/llir/llvm/asm/lexer.(*lexer).next (10ms)">
<text text-anchor="middle" x="422" y="-345.8" font-family="Times,serif" font-size="14.00"> 10ms</text>
</a>
</g>
</g>
<!-- N6 -->
<g id="node7" class="node"><title>N6</title>
<g id="a_node7"><a xlink:title="strings.IndexRune (10ms)">
<polygon fill="#f8f8f8" stroke="black" points="942.5,-221.5 793.5,-221.5 793.5,-183.5 942.5,-183.5 942.5,-221.5"/>
<text text-anchor="middle" x="868" y="-206.3" font-family="Times,serif" font-size="14.00">strings.IndexRune</text>
<text text-anchor="middle" x="868" y="-191.3" font-family="Times,serif" font-size="14.00">10ms(6.25%)</text>
</a>
</g>
</g>
<!-- N7 -->
<g id="node8" class="node"><title>N7</title>
<g id="a_node8"><a xlink:title="unicode/utf8.decodeRuneInStringInternal (10ms)">
<polygon fill="#f8f8f8" stroke="black" points="646,-38 326,-38 326,-0 646,-0 646,-38"/>
<text text-anchor="middle" x="486" y="-22.8" font-family="Times,serif" font-size="14.00">unicode/utf8.decodeRuneInStringInternal</text>
<text text-anchor="middle" x="486" y="-7.8" font-family="Times,serif" font-size="14.00">10ms(6.25%)</text>
</a>
</g>
</g>
<!-- N8 -->
<g id="node9" class="node"><title>N8</title>
<g id="a_node9"><a xlink:title="github.com/llir/llvm/asm/lexer.(*lexer).accept (20ms)">
<polygon fill="#f8f8f8" stroke="black" points="969.5,-320 766.5,-320 766.5,-284 969.5,-284 969.5,-320"/>
<text text-anchor="middle" x="868" y="-304.6" font-family="Times,serif" font-size="8.00">github.com/llir/llvm/asm/lexer.(*lexer).accept</text>
<text text-anchor="middle" x="868" y="-295.6" font-family="Times,serif" font-size="8.00">0 of 20ms(12.50%)</text>
</a>
</g>
</g>
<!-- N8&#45;&gt;N3 -->
<g id="edge14" class="edge"><title>N8&#45;&gt;N3</title>
<g id="a_edge14"><a xlink:title="github.com/llir/llvm/asm/lexer.(*lexer).accept &#45;&gt; github.com/llir/llvm/asm/lexer.(*lexer).next (10ms)">
<path fill="none" stroke="black" d="M801.024,-283.905C744.443,-269.464 662.279,-248.493 596.05,-231.589"/>
<polygon fill="black" stroke="black" points="596.537,-228.101 585.982,-229.019 594.806,-234.883 596.537,-228.101"/>
</a>
</g>
<g id="a_edge14&#45;label"><a xlink:title="github.com/llir/llvm/asm/lexer.(*lexer).accept &#45;&gt; github.com/llir/llvm/asm/lexer.(*lexer).next (10ms)">
<text text-anchor="middle" x="734" y="-250.8" font-family="Times,serif" font-size="14.00"> 10ms</text>
</a>
</g>
</g>
<!-- N8&#45;&gt;N6 -->
<g id="edge15" class="edge"><title>N8&#45;&gt;N6</title>
<g id="a_edge15"><a xlink:title="github.com/llir/llvm/asm/lexer.(*lexer).accept &#45;&gt; strings.IndexRune (10ms)">
<path fill="none" stroke="black" d="M868,-283.569C868,-269.281 868,-248.767 868,-232.081"/>
<polygon fill="black" stroke="black" points="871.5,-231.773 868,-221.773 864.5,-231.773 871.5,-231.773"/>
</a>
</g>
<g id="a_edge15&#45;label"><a xlink:title="github.com/llir/llvm/asm/lexer.(*lexer).accept &#45;&gt; strings.IndexRune (10ms)">
<text text-anchor="middle" x="890" y="-250.8" font-family="Times,serif" font-size="14.00"> 10ms</text>
</a>
</g>
</g>
<!-- N9&#45;&gt;N8 -->
<g id="edge16" class="edge"><title>N9&#45;&gt;N8</title>
<g id="a_edge16"><a xlink:title="github.com/llir/llvm/asm/lexer.(*lexer).acceptRun &#45;&gt; github.com/llir/llvm/asm/lexer.(*lexer).accept (10ms)">
<path fill="none" stroke="black" d="M868,-399.686C868,-381.249 868,-351.816 868,-330.262"/>
<polygon fill="black" stroke="black" points="871.5,-330.104 868,-320.104 864.5,-330.104 871.5,-330.104"/>
</a>
</g>
<g id="a_edge16&#45;label"><a xlink:title="github.com/llir/llvm/asm/lexer.(*lexer).acceptRun &#45;&gt; github.com/llir/llvm/asm/lexer.(*lexer).accept (10ms)">
<text text-anchor="middle" x="890" y="-345.8" font-family="Times,serif" font-size="14.00"> 10ms</text>
</a>
</g>
</g>
<!-- N10 -->
<g id="node11" class="node"><title>N10</title>
<g id="a_node11"><a xlink:title="github.com/llir/llvm/asm/lexer.(*lexer).lex (160ms)">
<polygon fill="#f8f8f8" stroke="black" points="694.5,-652 509.5,-652 509.5,-616 694.5,-616 694.5,-652"/>
<text text-anchor="middle" x="602" y="-636.6" font-family="Times,serif" font-size="8.00">github.com/llir/llvm/asm/lexer.(*lexer).lex</text>
<text text-anchor="middle" x="602" y="-627.6" font-family="Times,serif" font-size="8.00">0 of 160ms(100%)</text>
</a>
</g>
</g>
<!-- N10&#45;&gt;N4 -->
<g id="edge10" class="edge"><title>N10&#45;&gt;N4</title>
<g id="a_edge10"><a xlink:title="github.com/llir/llvm/asm/lexer.(*lexer).lex &#45;&gt; github.com/llir/llvm/asm/lexer.lexLetter (130ms)">
<path fill="none" stroke="black" stroke-width="5" d="M602,-615.851C602,-604.508 602,-589.215 602,-575.295"/>
<polygon fill="black" stroke="black" stroke-width="5" points="606.375,-575.007 602,-565.007 597.625,-575.007 606.375,-575.007"/>
</a>
</g>
<g id="a_edge10&#45;label"><a xlink:title="github.com/llir/llvm/asm/lexer.(*lexer).lex &#45;&gt; github.com/llir/llvm/asm/lexer.lexLetter (130ms)">
<text text-anchor="middle" x="628.5" y="-586.8" font-family="Times,serif" font-size="14.00"> 130ms</text>
</a>
</g>
</g>
<!-- N10&#45;&gt;N5 -->
<g id="edge12" class="edge"><title>N10&#45;&gt;N5</title>
<g id="a_edge12"><a xlink:title="github.com/llir/llvm/asm/lexer.(*lexer).lex &#45;&gt; github.com/llir/llvm/asm/lexer.lexToken (20ms)">
<path fill="none" stroke="black" d="M543.497,-615.959C497.532,-602.571 432.511,-583.632 378.683,-567.953"/>
<polygon fill="black" stroke="black" points="379.349,-564.501 368.769,-565.065 377.392,-571.222 379.349,-564.501"/>
</a>
</g>
<g id="a_edge12&#45;label"><a xlink:title="github.com/llir/llvm/asm/lexer.(*lexer).lex &#45;&gt; github.com/llir/llvm/asm/lexer.lexToken (20ms)">
<text text-anchor="middle" x="502" y="-586.8" font-family="Times,serif" font-size="14.00"> 20ms</text>
</a>
</g>
</g>
<!-- N13 -->
<g id="node14" class="node"><title>N13</title>
<g id="a_node14"><a xlink:title="github.com/llir/llvm/asm/lexer.lexDigitOrSign (10ms)">
<polygon fill="#f8f8f8" stroke="black" points="1045.5,-556.5 842.5,-556.5 842.5,-520.5 1045.5,-520.5 1045.5,-556.5"/>
<text text-anchor="middle" x="944" y="-541.1" font-family="Times,serif" font-size="8.00">github.com/llir/llvm/asm/lexer.lexDigitOrSign</text>
<text text-anchor="middle" x="944" y="-532.1" font-family="Times,serif" font-size="8.00">0 of 10ms(6.25%)</text>
</a>
</g>
</g>
<!-- N10&#45;&gt;N13 -->
<g id="edge17" class="edge"><title>N10&#45;&gt;N13</title>
<g id="a_edge17"><a xlink:title="github.com/llir/llvm/asm/lexer.(*lexer).lex &#45;&gt; github.com/llir/llvm/asm/lexer.lexDigitOrSign (10ms)">
<path fill="none" stroke="black" d="M664.33,-615.959C722.823,-599.968 810.282,-576.057 871.788,-559.242"/>
<polygon fill="black" stroke="black" points="873.087,-562.516 881.81,-556.502 871.241,-555.763 873.087,-562.516"/>
</a>
</g>
<g id="a_edge17&#45;label"><a xlink:title="github.com/llir/llvm/asm/lexer.(*lexer).lex &#45;&gt; github.com/llir/llvm/asm/lexer.lexDigitOrSign (10ms)">
<text text-anchor="middle" x="806" y="-586.8" font-family="Times,serif" font-size="14.00"> 10ms</text>
</a>
</g>
</g>
<!-- N11 -->
<g id="node12" class="node"><title>N11</title>
<g id="a_node12"><a xlink:title="github.com/llir/llvm/asm/lexer.ParseFile (160ms)">
<polygon fill="#f8f8f8" stroke="black" points="693,-826 511,-826 511,-790 693,-790 693,-826"/>
<text text-anchor="middle" x="602" y="-810.6" font-family="Times,serif" font-size="8.00">github.com/llir/llvm/asm/lexer.ParseFile</text>
<text text-anchor="middle" x="602" y="-801.6" font-family="Times,serif" font-size="8.00">0 of 160ms(100%)</text>
</a>
</g>
</g>
<!-- N12 -->
<g id="node13" class="node"><title>N12</title>
<g id="a_node13"><a xlink:title="github.com/llir/llvm/asm/lexer.ParseString (160ms)">
<polygon fill="#f8f8f8" stroke="black" points="697.5,-739 506.5,-739 506.5,-703 697.5,-703 697.5,-739"/>
<text text-anchor="middle" x="602" y="-723.6" font-family="Times,serif" font-size="8.00">github.com/llir/llvm/asm/lexer.ParseString</text>
<text text-anchor="middle" x="602" y="-714.6" font-family="Times,serif" font-size="8.00">0 of 160ms(100%)</text>
</a>
</g>
</g>
<!-- N11&#45;&gt;N12 -->
<g id="edge1" class="edge"><title>N11&#45;&gt;N12</title>
<g id="a_edge1"><a xlink:title="github.com/llir/llvm/asm/lexer.ParseFile &#45;&gt; github.com/llir/llvm/asm/lexer.ParseString (160ms)">
<path fill="none" stroke="black" stroke-width="6" d="M602,-789.799C602,-778.163 602,-762.548 602,-749.237"/>
<polygon fill="black" stroke="black" stroke-width="6" points="607.25,-749.175 602,-739.175 596.75,-749.175 607.25,-749.175"/>
</a>
</g>
<g id="a_edge1&#45;label"><a xlink:title="github.com/llir/llvm/asm/lexer.ParseFile &#45;&gt; github.com/llir/llvm/asm/lexer.ParseString (160ms)">
<text text-anchor="middle" x="628.5" y="-760.8" font-family="Times,serif" font-size="14.00"> 160ms</text>
</a>
</g>
</g>
<!-- N12&#45;&gt;N10 -->
<g id="edge2" class="edge"><title>N12&#45;&gt;N10</title>
<g id="a_edge2"><a xlink:title="github.com/llir/llvm/asm/lexer.ParseString &#45;&gt; github.com/llir/llvm/asm/lexer.(*lexer).lex (160ms)">
<path fill="none" stroke="black" stroke-width="6" d="M602,-702.799C602,-691.163 602,-675.548 602,-662.237"/>
<polygon fill="black" stroke="black" stroke-width="6" points="607.25,-662.175 602,-652.175 596.75,-662.175 607.25,-662.175"/>
</a>
</g>
<g id="a_edge2&#45;label"><a xlink:title="github.com/llir/llvm/asm/lexer.ParseString &#45;&gt; github.com/llir/llvm/asm/lexer.(*lexer).lex (160ms)">
<text text-anchor="middle" x="628.5" y="-673.8" font-family="Times,serif" font-size="14.00"> 160ms</text>
</a>
</g>
</g>
<!-- N13&#45;&gt;N8 -->
<g id="edge19" class="edge"><title>N13&#45;&gt;N8</title>
<g id="a_edge19"><a xlink:title="github.com/llir/llvm/asm/lexer.lexDigitOrSign &#45;&gt; github.com/llir/llvm/asm/lexer.(*lexer).accept (10ms)">
<path fill="none" stroke="black" d="M956.53,-520.298C977.354,-489.417 1014.23,-423.301 987,-375 974.128,-352.168 950.778,-335.754 928.15,-324.419"/>
<polygon fill="black" stroke="black" points="929.402,-321.14 918.867,-320.02 926.405,-327.466 929.402,-321.14"/>
</a>
</g>
<g id="a_edge19&#45;label"><a xlink:title="github.com/llir/llvm/asm/lexer.lexDigitOrSign &#45;&gt; github.com/llir/llvm/asm/lexer.(*lexer).accept (10ms)">
<text text-anchor="middle" x="1018" y="-414.3" font-family="Times,serif" font-size="14.00"> 10ms</text>
</a>
</g>
</g>
<!-- N14 -->
<g id="node15" class="node"><title>N14</title>
<g id="a_node15"><a xlink:title="github.com/llir/llvm/asm/lexer_test.ExampleParse (160ms)">
<polygon fill="#f8f8f8" stroke="black" points="714,-913 490,-913 490,-877 714,-877 714,-913"/>
<text text-anchor="middle" x="602" y="-897.6" font-family="Times,serif" font-size="8.00">github.com/llir/llvm/asm/lexer_test.ExampleParse</text>
<text text-anchor="middle" x="602" y="-888.6" font-family="Times,serif" font-size="8.00">0 of 160ms(100%)</text>
</a>
</g>
</g>
<!-- N14&#45;&gt;N11 -->
<g id="edge3" class="edge"><title>N14&#45;&gt;N11</title>
<g id="a_edge3"><a xlink:title="github.com/llir/llvm/asm/lexer_test.ExampleParse &#45;&gt; github.com/llir/llvm/asm/lexer.ParseFile (160ms)">
<path fill="none" stroke="black" stroke-width="6" d="M602,-876.799C602,-865.163 602,-849.548 602,-836.237"/>
<polygon fill="black" stroke="black" stroke-width="6" points="607.25,-836.175 602,-826.175 596.75,-836.175 607.25,-836.175"/>
</a>
</g>
<g id="a_edge3&#45;label"><a xlink:title="github.com/llir/llvm/asm/lexer_test.ExampleParse &#45;&gt; github.com/llir/llvm/asm/lexer.ParseFile (160ms)">
<text text-anchor="middle" x="628.5" y="-847.8" font-family="Times,serif" font-size="14.00"> 160ms</text>
</a>
</g>
</g>
<!-- N15 -->
<g id="node16" class="node"><title>N15</title>
<g id="a_node16"><a xlink:title="main.main (160ms)">
<polygon fill="#f8f8f8" stroke="black" points="648.5,-1261 555.5,-1261 555.5,-1225 648.5,-1225 648.5,-1261"/>
<text text-anchor="middle" x="602" y="-1245.6" font-family="Times,serif" font-size="8.00">main.main</text>
<text text-anchor="middle" x="602" y="-1236.6" font-family="Times,serif" font-size="8.00">0 of 160ms(100%)</text>
</a>
</g>
</g>
<!-- N18 -->
<g id="node19" class="node"><title>N18</title>
<g id="a_node19"><a xlink:title="testing.(*M).Run (160ms)">
<polygon fill="#f8f8f8" stroke="black" points="648.5,-1174 555.5,-1174 555.5,-1138 648.5,-1138 648.5,-1174"/>
<text text-anchor="middle" x="602" y="-1158.6" font-family="Times,serif" font-size="8.00">testing.(*M).Run</text>
<text text-anchor="middle" x="602" y="-1149.6" font-family="Times,serif" font-size="8.00">0 of 160ms(100%)</text>
</a>
</g>
</g>
<!-- N15&#45;&gt;N18 -->
<g id="edge4" class="edge"><title>N15&#45;&gt;N18</title>
<g id="a_edge4"><a xlink:title="main.main &#45;&gt; testing.(*M).Run (160ms)">
<path fill="none" stroke="black" stroke-width="6" d="M602,-1224.8C602,-1213.16 602,-1197.55 602,-1184.24"/>
<polygon fill="black" stroke="black" stroke-width="6" points="607.25,-1184.18 602,-1174.18 596.75,-1184.18 607.25,-1184.18"/>
</a>
</g>
<g id="a_edge4&#45;label"><a xlink:title="main.main &#45;&gt; testing.(*M).Run (160ms)">
<text text-anchor="middle" x="628.5" y="-1195.8" font-family="Times,serif" font-size="14.00"> 160ms</text>
</a>
</g>
</g>
<!-- N16 -->
<g id="node17" class="node"><title>N16</title>
<g id="a_node17"><a xlink:title="runtime.goexit (160ms)">
<polygon fill="#f8f8f8" stroke="black" points="648.5,-1473.5 555.5,-1473.5 555.5,-1437.5 648.5,-1437.5 648.5,-1473.5"/>
<text text-anchor="middle" x="602" y="-1458.1" font-family="Times,serif" font-size="8.00">runtime.goexit</text>
<text text-anchor="middle" x="602" y="-1449.1" font-family="Times,serif" font-size="8.00">0 of 160ms(100%)</text>
</a>
</g>
</g>
<!-- N17 -->
<g id="node18" class="node"><title>N17</title>
<g id="a_node18"><a xlink:title="runtime.main (160ms)">
<polygon fill="#f8f8f8" stroke="black" points="648.5,-1348 555.5,-1348 555.5,-1312 648.5,-1312 648.5,-1348"/>
<text text-anchor="middle" x="602" y="-1332.6" font-family="Times,serif" font-size="8.00">runtime.main</text>
<text text-anchor="middle" x="602" y="-1323.6" font-family="Times,serif" font-size="8.00">0 of 160ms(100%)</text>
</a>
</g>
</g>
<!-- N16&#45;&gt;N17 -->
<g id="edge5" class="edge"><title>N16&#45;&gt;N17</title>
<g id="a_edge5"><a xlink:title="runtime.goexit &#45;&gt; runtime.main (160ms)">
<path fill="none" stroke="black" stroke-width="6" d="M602,-1437.33C602,-1416.87 602,-1382.42 602,-1358.3"/>
<polygon fill="black" stroke="black" stroke-width="6" points="607.25,-1358.03 602,-1348.03 596.75,-1358.03 607.25,-1358.03"/>
</a>
</g>
<g id="a_edge5&#45;label"><a xlink:title="runtime.goexit &#45;&gt; runtime.main (160ms)">
<text text-anchor="middle" x="628.5" y="-1369.8" font-family="Times,serif" font-size="14.00"> 160ms</text>
</a>
</g>
</g>
<!-- N17&#45;&gt;N15 -->
<g id="edge6" class="edge"><title>N17&#45;&gt;N15</title>
<g id="a_edge6"><a xlink:title="runtime.main &#45;&gt; main.main (160ms)">
<path fill="none" stroke="black" stroke-width="6" d="M602,-1311.8C602,-1300.16 602,-1284.55 602,-1271.24"/>
<polygon fill="black" stroke="black" stroke-width="6" points="607.25,-1271.18 602,-1261.18 596.75,-1271.18 607.25,-1271.18"/>
</a>
</g>
<g id="a_edge6&#45;label"><a xlink:title="runtime.main &#45;&gt; main.main (160ms)">
<text text-anchor="middle" x="628.5" y="-1282.8" font-family="Times,serif" font-size="14.00"> 160ms</text>
</a>
</g>
</g>
<!-- N19 -->
<g id="node20" class="node"><title>N19</title>
<g id="a_node20"><a xlink:title="testing.RunExamples (160ms)">
<polygon fill="#f8f8f8" stroke="black" points="655,-1087 549,-1087 549,-1051 655,-1051 655,-1087"/>
<text text-anchor="middle" x="602" y="-1071.6" font-family="Times,serif" font-size="8.00">testing.RunExamples</text>
<text text-anchor="middle" x="602" y="-1062.6" font-family="Times,serif" font-size="8.00">0 of 160ms(100%)</text>
</a>
</g>
</g>
<!-- N18&#45;&gt;N19 -->
<g id="edge7" class="edge"><title>N18&#45;&gt;N19</title>
<g id="a_edge7"><a xlink:title="testing.(*M).Run &#45;&gt; testing.RunExamples (160ms)">
<path fill="none" stroke="black" stroke-width="6" d="M602,-1137.8C602,-1126.16 602,-1110.55 602,-1097.24"/>
<polygon fill="black" stroke="black" stroke-width="6" points="607.25,-1097.18 602,-1087.18 596.75,-1097.18 607.25,-1097.18"/>
</a>
</g>
<g id="a_edge7&#45;label"><a xlink:title="testing.(*M).Run &#45;&gt; testing.RunExamples (160ms)">
<text text-anchor="middle" x="628.5" y="-1108.8" font-family="Times,serif" font-size="14.00"> 160ms</text>
</a>
</g>
</g>
<!-- N20 -->
<g id="node21" class="node"><title>N20</title>
<g id="a_node21"><a xlink:title="testing.runExample (160ms)">
<polygon fill="#f8f8f8" stroke="black" points="651.5,-1000 552.5,-1000 552.5,-964 651.5,-964 651.5,-1000"/>
<text text-anchor="middle" x="602" y="-984.6" font-family="Times,serif" font-size="8.00">testing.runExample</text>
<text text-anchor="middle" x="602" y="-975.6" font-family="Times,serif" font-size="8.00">0 of 160ms(100%)</text>
</a>
</g>
</g>
<!-- N19&#45;&gt;N20 -->
<g id="edge8" class="edge"><title>N19&#45;&gt;N20</title>
<g id="a_edge8"><a xlink:title="testing.RunExamples &#45;&gt; testing.runExample (160ms)">
<path fill="none" stroke="black" stroke-width="6" d="M602,-1050.8C602,-1039.16 602,-1023.55 602,-1010.24"/>
<polygon fill="black" stroke="black" stroke-width="6" points="607.25,-1010.18 602,-1000.18 596.75,-1010.18 607.25,-1010.18"/>
</a>
</g>
<g id="a_edge8&#45;label"><a xlink:title="testing.RunExamples &#45;&gt; testing.runExample (160ms)">
<text text-anchor="middle" x="628.5" y="-1021.8" font-family="Times,serif" font-size="14.00"> 160ms</text>
</a>
</g>
</g>
<!-- N20&#45;&gt;N14 -->
<g id="edge9" class="edge"><title>N20&#45;&gt;N14</title>
<g id="a_edge9"><a xlink:title="testing.runExample &#45;&gt; github.com/llir/llvm/asm/lexer_test.ExampleParse (160ms)">
<path fill="none" stroke="black" stroke-width="6" d="M602,-963.799C602,-952.163 602,-936.548 602,-923.237"/>
<polygon fill="black" stroke="black" stroke-width="6" points="607.25,-923.175 602,-913.175 596.75,-923.175 607.25,-923.175"/>
</a>
</g>
<g id="a_edge9&#45;label"><a xlink:title="testing.runExample &#45;&gt; github.com/llir/llvm/asm/lexer_test.ExampleParse (160ms)">
<text text-anchor="middle" x="628.5" y="-934.8" font-family="Times,serif" font-size="14.00"> 160ms</text>
</a>
</g>
</g>
<!-- N21&#45;&gt;N7 -->
<g id="edge22" class="edge"><title>N21&#45;&gt;N7</title>
<g id="a_edge22"><a xlink:title="unicode/utf8.DecodeRuneInString &#45;&gt; unicode/utf8.decodeRuneInStringInternal (10ms)">
<path fill="none" stroke="black" d="M486,-88.5966C486,-77.0557 486,-61.647 486,-48.3573"/>
<polygon fill="black" stroke="black" points="489.5,-48.2679 486,-38.268 482.5,-48.268 489.5,-48.2679"/>
</a>
</g>
<g id="a_edge22&#45;label"><a xlink:title="unicode/utf8.DecodeRuneInString &#45;&gt; unicode/utf8.decodeRuneInStringInternal (10ms)">
<text text-anchor="middle" x="508" y="-59.8" font-family="Times,serif" font-size="14.00"> 10ms</text>
</a>
</g>
</g>
</g>
</g></svg>
